<?xml version="1.0" encoding="iso-8859-1"?>
<!-- Generator: Adobe Illustrator 22.1.0, SVG Export Plug-In . SVG Version: 6.00 Build 0)  -->
<svg version="1.1" id="&#x56FE;&#x5C42;_1" xmlns="http://www.w3.org/2000/svg" xmlns:xlink="http://www.w3.org/1999/xlink" x="0px"
	 y="0px" viewBox="0 0 298 54" style="enable-background:new 0 0 298 54;" xml:space="preserve">
<g>
	<path style="fill-rule:evenodd;clip-rule:evenodd;fill:#FFFFFF;" d="M63.53,25.14c-0.255-0.996-2.224-1.021-3.118-0.891
		c-1.103,0.161-3.925,1.067-5.704,1.932c-3.513,1.708-7.405,4.313-10.157,7.907c-2.64,3.447-1.502,6.277,2.755,7.305
		c4.041,0.656,5.933,0.388,9.028-0.255c4.4-0.912,9.42-3.35,12.213-4.922c-1.082,2.668-2.64,5.771-3.845,8.525
		c-0.172,0.392-0.711,0.773-1.159,0.923c-6.773,2.249-13.137,3.31-19.844,1.864c-8.027-1.708-10.491-8.435-5.555-15.108
		c4.561-6.171,10.78-9.989,17.986-12.284c4.039-1.283,8.158-2.142,12.409-1.023c4.026,1.06,4.961,4.617,3.091,8.104
		c-1.256,2.342-3.633,4.134-5.892,5.505c-5.837,3.543-12.345,4.877-19.163,4.665c-0.517-0.017-2.266-0.27-2.266-0.27
		c0.407-1.171,1.38-2.733,2.281-3.691c0.619-0.657,1.663-1.197,2.556-1.263c3.809-0.279,7.769-1.361,10.44-2.696
		C60.8,28.859,64.032,27.1,63.53,25.14z"/>
	<path style="fill-rule:evenodd;clip-rule:evenodd;fill:#FFFFFF;" d="M69.118,13.831c1.377-3.735,2.29-5.047,3.382-7.946
		c-1.668,0.144-2.926,0.209-4.17,0.366c-8.566,1.079-16.927,2.905-24.528,7.228c-4.18,2.379-7.822,5.377-9.791,9.939
		c-1.547,3.584-0.657,8.029,1.761,10.136c0.646-1.219,0.741-1.289,1.53-2.366c0.61-0.833,1.552-1.84,2.235-2.614
		c0.182-0.204,0.311-0.576,0.27-0.842c-0.342-2.292,0.808-3.9,2.369-5.33c2.914-2.669,7.001-4.863,10.673-6.064
		C57.003,14.98,62.645,13.45,69.118,13.831z"/>
	<path style="fill:#FFFFFF;" d="M91.69,39.516c-0.473,0.894-1.158,1.726-2.048,2.494c-0.893,0.769-1.981,1.433-3.268,1.999
		c-1.286,0.565-2.758,1.007-4.413,1.328c-1.657,0.32-3.484,0.481-5.487,0.481c-1.943,0-4.35-0.094-5.919-0.407
		c-1.574-0.312-2.366-0.342-3.273-0.913l2.223-4.672c0.522,0.305,1.32,0.591,1.999,0.876c0.678,0.287,1.395,0.537,2.149,0.748
		c0.756,0.212,1.521,0.379,2.301,0.506c0.772,0.126,1.516,0.192,2.227,0.192c1.708,0,3.083-0.235,4.125-0.707
		c1.033-0.471,1.734-1.048,2.092-1.723c0.186-0.352,0.277-0.671,0.266-0.949c-0.013-0.277-0.172-0.537-0.477-0.784
		c-0.304-0.246-0.783-0.487-1.431-0.724c-0.653-0.236-1.514-0.487-2.581-0.758c-1.453-0.389-2.624-0.798-3.515-1.228
		c-0.893-0.431-1.537-0.904-1.935-1.419c-0.398-0.514-0.589-1.069-0.557-1.671c0.025-0.597,0.229-1.254,0.602-1.962
		c0.482-0.91,1.23-1.742,2.246-2.492c1.012-0.75,2.197-1.397,3.546-1.935c1.353-0.54,2.824-0.957,4.413-1.252
		c1.591-0.297,3.199-0.444,4.83-0.444c1.476,0.002,2.877,0.096,4.199,0.282c1.322,0.183,2.536,0.506,3.635,0.963l-2.007,3.796
		c-1.093-0.371-2.29-0.681-3.593-0.927c-1.309-0.243-2.656-0.369-4.052-0.369c-1.629,0-2.978,0.221-4.038,0.661
		c-1.063,0.439-1.771,0.994-2.126,1.67c-0.155,0.285-0.21,0.555-0.173,0.81c0.037,0.251,0.204,0.497,0.501,0.733
		c0.294,0.234,0.748,0.478,1.354,0.722c0.607,0.246,1.41,0.494,2.407,0.748c1.392,0.354,2.554,0.729,3.493,1.127
		c0.935,0.396,1.649,0.84,2.138,1.331c0.489,0.489,0.745,1.05,0.768,1.682C92.333,37.961,92.128,38.692,91.69,39.516z"/>
	<path style="fill:#FFFFFF;" d="M153.071,28.595c0.303-2.509-2.194-4.543-5.579-4.544l-6.567-0.003
		c-2.643-0.002-4.505,0.064-5.581,0.199c-1.078,0.138-2.106,0.417-3.084,0.836c-2.657,1.207-4.601,3.031-5.831,5.472
		c-0.743,1.475-0.994,2.795-0.763,3.957c0.237,1.162,0.926,1.953,2.07,2.375c0.999,0.364,2.877,0.542,5.624,0.545l8.562,0.002
		c-0.772,1.538-1.655,2.58-2.638,3.121c-0.988,0.546-2.73,1.384-4.852,1.383l-13.279-0.086l-2.178,4.132l13.276,0.088
		c2.126,0.001,3.604-0.038,4.443-0.111c0.84-0.079,1.729-0.22,2.67-0.43c4.898-1.245,7.849-4.297,10.049-9.089l3.201-6.527
		C152.837,29.495,153.014,29.058,153.071,28.595z M136.246,32.73l-1.197-0.002c-0.806,0-1.615-0.063-1.906-0.424
		c-0.285-0.362-0.375-0.962-0.056-1.592c0.348-0.695,0.977-1.226,1.705-1.527c0.724-0.303,2.062-0.437,3.457-0.436l2.559,0.001
		l5.477,0.002l-2,3.981h-0.342L136.246,32.73z"/>
	<path style="fill:#FFFFFF;" d="M123.721,32.725c0.835-1.535,1.263-2.834,1.287-3.899c0.018-1.062-0.341-1.925-1.068-2.591
		c-0.733-0.667-1.82-1.153-3.265-1.462c-1.449-0.312-3.215-0.49-5.304-0.532c-1.619-0.036-3.362,0.053-5.231,0.267
		c-1.868,0.214-3.597,0.523-5.179,0.929l-2.032,3.731c1.782-0.401,3.537-0.714,5.262-0.939c1.726-0.224,3.347-0.321,4.87-0.288
		c2.137,0.044,3.45,0.482,3.946,1.31c0.49,0.832,0.325,2.005-0.503,3.52c-0.832-0.066-1.601-0.118-2.314-0.159
		c-0.71-0.042-1.431-0.069-2.172-0.084c-4.935-0.106-8.988,0.41-12.154,1.55c-3.167,1.141-5.36,2.828-6.579,5.063
		c-0.489,0.903-0.726,1.738-0.711,2.509c0.016,0.766,0.295,1.443,0.833,2.029c0.539,0.587,1.366,1.05,2.482,1.395
		c1.119,0.344,2.535,0.536,4.254,0.572c2.209,0.047,4.249-0.162,6.118-0.629c1.872-0.468,3.591-0.952,5.17-1.663
		c-0.022,0.406,0.05,0.668,0.21,0.993c0.159,0.323,0.42,0.604,0.787,0.84c0.373,0.232,0.863,0.423,1.485,0.56
		c0.619,0.142,1.379,0.221,2.291,0.239c0.113,0.002,0.22-0.004,0.33-0.004l2.689-4.918c0.042-0.126,0.1-0.26,0.178-0.403
		L123.721,32.725z M112.587,39.957c-1.487,0.68-3.051,1.209-4.704,1.597c-1.652,0.386-3.166,0.566-4.539,0.538
		c-1.353-0.028-2.257-0.319-2.713-0.868c-0.457-0.55-0.457-1.249,0.006-2.1c0.243-0.454,0.603-0.885,1.078-1.295
		c0.473-0.411,1.106-0.78,1.904-1.098c0.792-0.322,1.771-0.572,2.941-0.749c1.164-0.179,2.569-0.25,4.217-0.215
		c0.757,0.017,1.478,0.043,2.157,0.073c0.677,0.033,1.29,0.07,1.837,0.112L112.587,39.957z"/>
	<g>
		<g>
			<g>
				<path style="fill:#FFFFFF;" d="M216.045,39.256c-0.034-0.036-0.084-0.062-0.136-0.062h-0.003l-2.432,0.021
					c-0.092,0.004-0.17,0.068-0.18,0.158c-0.004,0.023-0.346,2.639-4.56,5.15c-0.063,0.039-0.099,0.11-0.082,0.179l0.214,0.901
					c0.008,0.04,0.038,0.076,0.077,0.099c0.029,0.012,0.056,0.02,0.085,0.02c0.014,0.001,0.032,0,0.042-0.002
					c0.057-0.016,5.327-1.396,6.994-6.321C216.084,39.348,216.074,39.293,216.045,39.256z"/>
			</g>
			<g>
				<path style="fill:#FFFFFF;" d="M231.198,38.934c-1.829-0.027-3.93,0.032-3.979,0.032c-0.074,0.01-1.787,0.284-2.855,2.522
					l-0.13,0.278c-0.945,1.994-1.17,2.417-1.885,2.423c-0.901,0.007-4.36,0.03-4.35,0.03c-0.01,0-0.098-0.009-0.148-0.106
					c-0.082-0.156-0.155-0.682,0.93-2.262c1.644-2.402,1.535-2.593,1.473-2.696c-0.029-0.049-0.103-0.089-0.167-0.09l0,0
					l-2.114,0.022c-0.07,0-0.136,0.033-0.166,0.092c-0.269,0.476-2.62,4.671-2.674,5.306c-0.02,0.249,0.077,0.483,0.272,0.681
					c0.356,0.352,1.011,0.543,1.841,0.542c0.089-0.003,0.188-0.003,0.273-0.007l5.584,0.028c0.066-0.009,1.59-0.303,2.593-2.2
					c0.514-1.282,1.469-3.092,2.001-3.092c1.001-0.005,2.578-0.023,2.581-0.023c0.438,0.015,0.895,0.104,0.947,0.174
					c-0.077,0.329-0.564,2.118-2.654,4.89c-0.039,0.052-0.042,0.115-0.015,0.165c0.027,0.055,0.087,0.087,0.149,0.087h0.001
					l1.997-0.019c0.065,0,0.123-0.033,0.16-0.081c0.117-0.18,2.938-4.418,2.813-5.753C233.655,39.661,233.412,38.964,231.198,38.934
					z"/>
			</g>
			<g>
				<path style="fill:#FFFFFF;" d="M265.263,29.612c-0.028-0.045-0.084-0.072-0.14-0.071c0,0,0,0-0.002,0l-5.276,0.044l0.544-1.053
					c0.025-0.049,0.024-0.107-0.008-0.155c-0.027-0.044-0.081-0.07-0.144-0.07l0,0l-1.769,0.01
					c-0.071,0.004-0.134,0.038-0.163,0.105l-0.608,1.181l-6.711,0.052c-0.069-0.001-0.132,0.038-0.161,0.096l-0.569,1.105
					c-0.031,0.048-0.025,0.107,0.003,0.152c0.031,0.043,0.084,0.075,0.142,0.071c0,0,0,0,0.003,0l14.135-0.114
					c0.067,0,0.129-0.039,0.158-0.098l0.572-1.1C265.294,29.714,265.298,29.655,265.263,29.612z"/>
			</g>
			<g>
				<path style="fill:#FFFFFF;" d="M260.996,44.033l-8.461-0.083l1.203-2.349l6.832-0.048c0.068-0.001,0.133-0.038,0.163-0.098
					l0.649-1.27c0.022-0.051,0.022-0.105-0.008-0.155c-0.03-0.042-0.084-0.069-0.142-0.07l0,0l-6.819,0.036l0.512-0.993
					c0.024-0.046,0.016-0.1-0.012-0.147c-0.032-0.042-0.084-0.063-0.142-0.063l-1.706,0.003c-0.071,0.001-0.137,0.039-0.167,0.101
					l-2.45,5.089c-1.576-0.051-2.537-0.583-3.081-1.447c0.393-0.528,0.597-0.876,0.86-1.395l0.999-2.119
					c0.026-0.048,0.02-0.105-0.008-0.149c-0.032-0.045-0.085-0.07-0.142-0.07l-1.819,0.005c-0.07,0-0.132,0.039-0.165,0.1
					l-1.097,2.132c-0.676,1.326-1.92,2.487-3.693,3.459c-0.051,0.026-0.086,0.074-0.092,0.125c-0.007,0.055,0.017,0.104,0.058,0.14
					l1.048,0.827c0.031,0.024,0.067,0.034,0.105,0.037c0.03,0,0.067-0.011,0.094-0.027c0.629-0.354,1.226-0.849,1.704-1.247
					c0.077-0.061,0.152-0.124,0.224-0.183c1.094,0.861,2.983,1.372,5.102,1.364l9.787,0.083c0.07,0,0.139-0.038,0.168-0.096
					l0.647-1.267c0.023-0.051,0.024-0.11-0.004-0.154C261.11,44.058,261.054,44.033,260.996,44.033z"/>
			</g>
			<g>
				<g>
					<path style="fill:#FFFFFF;" d="M263.991,34.072L263.991,34.072l-0.579-0.028l0.247-0.484c0.216-0.421,0.208-0.839-0.011-1.185
						c-0.321-0.486-0.836-0.75-1.754-0.745l-10.977,0.084c-0.068,0.003-0.131,0.039-0.158,0.098l-0.598,1.117
						c-0.03,0.051-0.024,0.112,0.005,0.154c0.029,0.047,0.08,0.075,0.14,0.075h0.002l5.505-0.051l-0.542,1.023l-5.669,0.048
						c-0.066,0.001-0.129,0.039-0.159,0.097l-0.592,1.11c-0.026,0.05-0.026,0.108,0.005,0.152c0.029,0.045,0.084,0.074,0.14,0.074
						h0.003l5.514-0.054l-0.551,1.042l-5.67,0.047c-0.073-0.001-0.135,0.039-0.162,0.097l-0.571,1.103
						c-0.025,0.05-0.025,0.109,0.005,0.156c0.03,0.045,0.083,0.074,0.142,0.074c0,0,0,0,0.003,0l11.082-0.088
						c1.536-0.015,3.058-0.887,3.564-1.882l0.327-0.633l0.729,0.02c0.071,0,0.135-0.038,0.168-0.097l0.563-1.103
						c0.024-0.048,0.027-0.105-0.005-0.153C264.098,34.1,264.047,34.07,263.991,34.072z M261.321,32.912l-0.008,0.163
						c0.254-0.002,0.45,0.061,0.518,0.169c0.043,0.062,0.039,0.141-0.005,0.232l-0.317,0.611l-4.134,0.041l0.546-1.035l3.388-0.018
						L261.321,32.912L261.321,32.912z M260.775,35.519l-0.257,0.502c-0.15,0.292-0.669,0.539-1.151,0.539l-3.294,0.016l0.543-1.024
						L260.775,35.519z"/>
				</g>
			</g>
			<g>
				<path style="fill:#FFFFFF;" d="M244.096,38.87l0.415-0.844l1.787-0.016c0.064,0,0.128-0.035,0.159-0.093l0.657-1.144
					c0.025-0.047,0.024-0.109-0.005-0.156c-0.027-0.049-0.081-0.076-0.142-0.078l0,0l-1.725,0.018l2.029-4.173l1.797-0.012
					c0.063,0.001,0.125-0.038,0.16-0.097l0.693-1.269c0.028-0.051,0.024-0.108-0.008-0.156c-0.024-0.045-0.081-0.07-0.139-0.07
					h-0.005l-1.714,0.01l1.095-2.233c0.025-0.046,0.02-0.104-0.011-0.148c-0.028-0.048-0.08-0.071-0.141-0.074l0,0l-1.773,0.018
					c-0.072-0.001-0.134,0.041-0.167,0.1l-1.151,2.354l-3.039,0.024c-0.067,0-0.129,0.037-0.165,0.093l-0.694,1.265
					c-0.026,0.052-0.026,0.111,0.002,0.156c0.03,0.048,0.086,0.075,0.144,0.075l0,0l2.265-0.018
					c0.393,0.001,0.566,0.045,0.599,0.062c0.003,0.016,0.002,0.063-0.009,0.132c-0.001,0.005-0.017,0.056-0.143,0.334
					c-0.002,0.002-0.002,0.007-0.004,0.009l-1.519,3.088c-0.01,0.012-0.015,0.023-0.021,0.038l-0.241,0.505l-3.024,0.021
					c-0.064,0-0.125,0.036-0.16,0.094l-0.656,1.14c-0.03,0.051-0.03,0.109,0,0.158c0.029,0.044,0.083,0.076,0.141,0.076l0,0
					l2.259-0.016c0.399-0.003,0.575,0.044,0.605,0.062c0.008,0.01,0.009,0.042-0.004,0.128c-0.01,0.029-0.053,0.13-0.128,0.291
					c-0.016,0.038-0.028,0.065-0.033,0.071c0,0,0,0.002,0.001,0.006l-2.189,4.459c-0.256,0.529-1.079,0.982-1.795,0.989
					l-1.353,0.009c-0.071,0-0.135,0.041-0.162,0.101l-0.623,1.265c-0.027,0.05-0.024,0.109,0.009,0.153
					c0.029,0.043,0.082,0.069,0.139,0.069l0,0l1.355-0.008c1.829-0.015,3.858-1.121,4.52-2.47l2.094-4.276
					C244.083,38.886,244.092,38.879,244.096,38.87z"/>
			</g>
			<g>
				<path style="fill:#FFFFFF;" d="M195.714,35.542l2.408-0.013c2.111-0.017,4.221-0.029,6.342-0.056
					c1.776-0.027,2.742-0.778,3.483-2.097c0.107-0.193,0.215-0.381,0.328-0.572c0.339-0.578,0.688-1.182,0.929-1.78
					c0.414-1.008,1.255-1.233,2.492-1.111c0.079,0.006,0.147-0.03,0.181-0.095c0.107-0.202,0.215-0.422,0.316-0.635
					c0.106-0.204,0.202-0.405,0.29-0.566c0.024-0.047,0.024-0.102,0-0.146c-0.028-0.043-0.073-0.073-0.13-0.081
					c-0.432-0.046-0.82-0.072-1.183-0.068c-1.968,0.005-3.157,0.718-4.102,2.456c-0.13,0.239-0.262,0.475-0.392,0.709
					c-0.294,0.535-0.604,1.082-0.861,1.634c-0.285,0.602-0.697,0.832-1.534,0.834l-1.131,0.001
					c-3.074,0.007-5.643,0.035-10.376,0.088h-0.004c-0.038,0-0.079-0.003-0.074-0.096c0.013-0.331,0.664-1.161,2.107-1.175
					c3.393-0.028,6.209-0.05,9.67-0.073c0.07-0.001,0.133-0.039,0.164-0.103l0.596-1.216c0.023-0.054,0.022-0.11-0.009-0.152
					c-0.03-0.048-0.078-0.073-0.137-0.073c0,0,0,0-0.006,0c-1.275,0.008-2.027,0.012-2.762,0.016l-0.011,0.161l-0.04-0.161
					c-1.427,0.001-2.9,0.006-8.469,0.07c-0.033,0-0.123-0.004-0.146-0.042c-0.025-0.046-0.005-0.17,0.106-0.332
					c0.237-0.356,0.89-0.881,1.744-0.884c2.291,0.024,4.891-0.005,7.41-0.029c1.024-0.014,2.04-0.026,3.009-0.032
					c0.066,0,0.123-0.034,0.157-0.089l0.664-1.14c0.031-0.05,0.033-0.11,0.003-0.157c-0.032-0.048-0.084-0.076-0.143-0.076
					c0,0,0,0-0.006,0c-1.139,0.01-2.269,0.012-3.387,0.019c-2.923,0.011-5.687,0.021-8.521,0.099
					c-1.227,0.037-2.297,0.703-2.935,1.834c-0.206,0.369-0.406,0.739-0.607,1.113c-0.198,0.369-0.397,0.741-0.603,1.111
					l-0.113,0.197c-0.427,0.745-0.863,1.516-0.557,2.094c0.187,0.353,0.625,0.587,1.346,0.703c-1.555,2.614-3.496,4.255-6.278,5.317
					l-0.27,0.107c-0.398,0.156-0.774,0.303-1.431,0.515c-0.065,0.021-0.112,0.071-0.123,0.13c-0.016,0.061,0.009,0.122,0.061,0.158
					c0.055,0.038,0.234,0.128,0.595,0.314c0.216,0.108,0.513,0.258,0.554,0.287c0.039,0.028,0.092,0.036,0.133,0.028
					c2.507-0.472,5.572-2.622,7.209-3.893c0.154-0.002,0.706-0.011,2.483-0.007c-2.175,2.792-5.733,4.724-12.192,6.598
					c-0.09,0.027-0.145,0.116-0.123,0.201c0.029,0.112,0.093,0.174,1.321,0.6l0.228,0.079c0.02,0.008,0.039,0.011,0.057,0.011
					c0.017,0,0.03,0,0.041-0.006c1.071-0.229,2.526-0.575,3.411-0.857c1.53-0.487,3.83-1.504,5.031-2.356
					c2.842-2.022,3.371-2.697,4.042-3.546c0.173-0.224,0.362-0.458,0.6-0.73c1.267-0.01,1.536-0.011,1.611-0.011h0.049
					c0.045,0,0.175-0.004,1.11-0.006c-2.232,2.952-5.142,5.173-8.902,6.755c-0.083,0.033-0.131,0.118-0.107,0.192
					c0.037,0.13,0.174,0.192,0.997,0.418c0.179,0.054,0.339,0.096,0.422,0.124c0.017,0.008,0.038,0.011,0.059,0.011
					c0.012,0,0.027,0,0.039-0.003c1.044-0.226,1.064-0.229,1.916-0.602c1.325-0.57,2.561-1.335,3.785-2.336
					c1.151-0.944,2.272-2.281,3.254-3.459c0.331-0.397,0.65-0.773,0.953-1.123c1.586-0.009,2.392-0.02,2.748-0.021l-0.337,0.749
					c-0.482,1.088-1.087,2.168-1.665,3.17c-0.173,0.306-0.302,0.561-0.414,0.773c-0.484,0.946-0.512,1.004-2.406,1.008l-0.788-0.002
					c-0.214,0-0.44,0.003-0.725,0.016c-0.073,0.002-0.133,0.046-0.164,0.105c-0.086,0.192-0.168,0.392-0.259,0.598
					c-0.081,0.19-0.167,0.388-0.261,0.595c-0.018,0.05-0.013,0.108,0.019,0.151c0.027,0.041,0.075,0.067,0.136,0.067l0.164-0.003
					c0.824,0,1.546-0.008,2.267-0.013c2.464-0.028,3.564-0.601,4.514-2.358c0.785-1.46,1.558-2.891,2.317-4.351
					c0.343-0.655,0.397-1.144,0.171-1.494c-0.267-0.413-0.883-0.608-1.938-0.609c-1.152,0-2.317,0.008-3.475,0.019l-8.626,0.07
					C193.748,35.559,193.839,35.558,195.714,35.542z"/>
			</g>
			<g>
				<g>
					<path style="fill:#FFFFFF;" d="M237.831,29.328c-0.438-0.661-1.298-1.038-2.356-1.038l-13.253,0.01
						c-1.872,0.007-4.039,1.164-4.94,2.628l-2.177,3.542c-0.515,0.838-0.561,1.701-0.123,2.365c0.436,0.662,1.296,1.036,2.357,1.036
						l13.249-0.008c1.872-0.005,4.042-1.162,4.942-2.631l2.174-3.536C238.222,30.852,238.269,29.99,237.831,29.328z M222.243,29.89
						l6.811-0.005l-1.967,0.005l-1.261,2.374h-7.36l0.341-0.556C219.41,30.73,220.979,29.895,222.243,29.89z M217.332,36.284
						c-0.424-0.001-0.741-0.102-0.851-0.263c-0.104-0.163-0.049-0.45,0.151-0.772l0.966-1.571h7.477l-1.381,2.602L217.332,36.284z
						 M230.58,36.276c-0.003,0-0.006,0-0.006,0s0,0-0.005,0l-4.359,0.003l1.392-2.601h6.881l-0.478,0.777
						C233.404,35.433,231.833,36.27,230.58,36.276z M236.182,30.914l-0.83,1.35h-6.993l1.275-2.379l5.844-0.005
						c0.426,0,0.744,0.098,0.851,0.262C236.437,30.304,236.382,30.591,236.182,30.914z"/>
				</g>
			</g>
		</g>
	</g>
	<path style="fill:#FFFFFF;" d="M160.316,41.946h1.359c-0.428-0.008-1.07-0.014-1.773-0.016c0.053,0.002,0.101,0.014,0.156,0.014
		L160.316,41.946z"/>
	<path style="fill:#FFFFFF;" d="M180.153,25.351c-0.585-0.421-1.394-0.776-2.362-0.973c-1.004-0.204-1.396-0.33-4.153-0.328
		l-6.844,0.003c-5.198-0.053-8.644,1.645-10.506,4.544c-0.377,0.586-0.92,1.443-0.92,1.443l-3.374,6.406
		c-2.658,4.794-2.295,7.825,1.085,9.088c0.765,0.211,1.544,0.353,2.339,0.431c0.798,0.074,2.299,0.112,4.515,0.111l14.702-0.113
		l1.998-4.037l-14.702,0.026c-0.073-0.002-0.16-0.003-0.254-0.006h-1.359h-3.98v-0.019c0.838-0.001,2.305-0.002,3.567,0.004
		c-1.515-0.079-2.715-1.06-2.715-2.271c0-0.284,0.074-0.554,0.195-0.803l0.866-1.477l9.45,0.056
		c2.864-0.002,5.006-0.183,6.424-0.543c1.628-0.423,3.162-1.215,4.609-2.378c1.443-1.161,1.738-2.283,2.488-3.759
		C182.46,28.313,181.676,26.557,180.153,25.351z M174.924,30.714c-0.319,0.632-1.032,1.232-1.703,1.593
		c-0.676,0.362-1.585,0.425-2.424,0.425l-1.249,0.001l-8.025,0.002l-0.573-0.046l2.246-3.934l5.709-0.001l2.667-0.001
		c1.456-0.001,2.785,0.036,3.226,0.339C175.242,29.393,175.277,30.021,174.924,30.714z"/>
	<path style="fill:#FFFFFF;" d="M156.336,41.927v0.019h3.98l-0.258-0.002c-0.054,0-0.103-0.012-0.156-0.014
		C158.641,41.925,157.174,41.926,156.336,41.927z"/>
	<path style="fill:#FFFFFF;" d="M158.567,33.135c-0.404,0-0.768-0.032-1.105-0.086C157.799,33.103,158.161,33.135,158.567,33.135z"
		/>
</g>
</svg>
