<?xml version="1.0" encoding="iso-8859-1"?>
<!-- Generator: Adobe Illustrator 22.1.0, SVG Export Plug-In . SVG Version: 6.00 Build 0)  -->
<svg version="1.1" id="&#x56FE;&#x5C42;_1" xmlns="http://www.w3.org/2000/svg" xmlns:xlink="http://www.w3.org/1999/xlink" x="0px"
	 y="0px" viewBox="0 0 215 58" style="enable-background:new 0 0 215 58;" xml:space="preserve">
<g>
	<path style="fill-rule:evenodd;clip-rule:evenodd;fill:#FFFFFF;" d="M65.689,27.187c-0.244-0.951-2.123-0.974-2.977-0.851
		c-1.053,0.155-3.747,1.019-5.446,1.844c-3.354,1.631-7.068,4.118-9.696,7.549c-2.52,3.29-1.433,5.992,2.63,6.973
		c3.857,0.626,5.663,0.37,8.618-0.244c4.2-0.87,8.993-3.198,11.659-4.699c-1.033,2.547-2.519,5.51-3.67,8.139
		c-0.164,0.375-0.678,0.738-1.106,0.882c-6.466,2.147-12.541,3.16-18.943,1.779c-7.664-1.63-10.015-8.053-5.304-14.423
		c4.354-5.89,10.29-9.536,17.17-11.726c3.855-1.225,7.788-2.046,11.846-0.977c3.843,1.013,4.736,4.408,2.95,7.737
		c-1.199,2.236-3.468,3.946-5.625,5.255c-5.572,3.382-11.785,4.656-18.294,4.454c-0.493-0.016-2.162-0.258-2.162-0.258
		c0.389-1.118,1.317-2.609,2.177-3.524c0.591-0.627,1.588-1.143,2.44-1.206c3.636-0.266,7.417-1.3,9.966-2.574
		C63.083,30.738,66.168,29.058,65.689,27.187z"/>
	<path style="fill-rule:evenodd;clip-rule:evenodd;fill:#FFFFFF;" d="M71.024,16.391c1.315-3.565,2.186-4.818,3.229-7.586
		c-1.593,0.138-2.794,0.2-3.981,0.35c-8.178,1.03-16.16,2.773-23.415,6.9c-3.99,2.271-7.467,5.133-9.347,9.489
		c-1.477,3.421-0.627,7.665,1.681,9.676c0.616-1.163,0.708-1.231,1.461-2.258c0.583-0.796,1.481-1.756,2.134-2.496
		c0.173-0.195,0.297-0.55,0.258-0.805c-0.326-2.188,0.771-3.723,2.262-5.088c2.781-2.547,6.684-4.642,10.189-5.789
		C59.458,17.488,64.845,16.027,71.024,16.391z"/>
	<path style="fill:#FFFFFF;" d="M92.572,40.911c-0.452,0.854-1.105,1.647-1.954,2.381c-0.853,0.734-1.892,1.369-3.12,1.908
		c-1.228,0.54-2.633,0.962-4.213,1.268c-1.582,0.305-3.326,0.459-5.238,0.459c-1.855,0-4.153-0.089-5.651-0.389
		c-1.502-0.298-2.258-0.326-3.125-0.872l2.122-4.46c0.499,0.291,1.26,0.564,1.908,0.837c0.647,0.273,1.331,0.512,2.052,0.713
		c0.722,0.202,1.453,0.361,2.198,0.483c0.737,0.121,1.447,0.183,2.126,0.183c1.631,0,2.944-0.225,3.938-0.675
		c0.986-0.45,1.655-1.001,1.997-1.645c0.177-0.336,0.264-0.64,0.255-0.906c-0.013-0.265-0.165-0.513-0.456-0.748
		c-0.29-0.234-0.748-0.465-1.366-0.691c-0.623-0.225-1.445-0.465-2.464-0.723c-1.387-0.371-2.505-0.762-3.355-1.172
		c-0.853-0.411-1.468-0.862-1.847-1.355c-0.38-0.491-0.562-1.02-0.532-1.595c0.023-0.57,0.219-1.197,0.575-1.874
		c0.46-0.869,1.175-1.664,2.145-2.379c0.966-0.716,2.097-1.334,3.385-1.848c1.291-0.516,2.696-0.914,4.213-1.195
		c1.518-0.284,3.054-0.424,4.611-0.424c1.409,0.001,2.746,0.091,4.008,0.269c1.262,0.174,2.421,0.483,3.47,0.92l-1.916,3.623
		c-1.044-0.354-2.187-0.651-3.43-0.885c-1.25-0.232-2.536-0.352-3.869-0.352c-1.555,0-2.842,0.211-3.855,0.631
		c-1.014,0.419-1.691,0.949-2.029,1.594c-0.148,0.272-0.201,0.53-0.165,0.774c0.034,0.24,0.195,0.474,0.478,0.699
		c0.28,0.224,0.714,0.456,1.292,0.689c0.58,0.235,1.346,0.471,2.298,0.714c1.328,0.338,2.438,0.696,3.334,1.076
		c0.893,0.378,1.574,0.802,2.041,1.27c0.467,0.467,0.711,1.002,0.734,1.606C93.186,39.427,92.99,40.125,92.572,40.911z"/>
	<path style="fill:#FFFFFF;" d="M151.169,30.486c0.29-2.395-2.094-4.337-5.326-4.338l-6.269-0.003
		c-2.524-0.002-4.3,0.061-5.328,0.19c-1.029,0.132-2.01,0.398-2.944,0.798c-2.536,1.152-4.393,2.893-5.566,5.224
		c-0.71,1.408-0.949,2.668-0.729,3.777c0.227,1.11,0.884,1.865,1.976,2.268c0.954,0.348,2.747,0.518,5.369,0.52l8.174,0.002
		c-0.737,1.469-1.58,2.463-2.518,2.98c-0.943,0.521-2.606,1.321-4.633,1.32l-12.676-0.081l-2.079,3.944l12.674,0.084
		c2.029,0.001,3.441-0.036,4.242-0.106c0.802-0.075,1.65-0.21,2.548-0.41c4.676-1.189,7.493-4.102,9.593-8.677l3.057-6.231
		C150.946,31.345,151.115,30.928,151.169,30.486z M135.108,34.433l-1.143-0.002c-0.769,0-1.541-0.06-1.82-0.405
		c-0.272-0.346-0.357-0.918-0.053-1.52c0.332-0.663,0.933-1.17,1.628-1.458c0.691-0.289,1.969-0.417,3.3-0.416l2.444,0.001
		l5.228,0.002l-1.909,3.8h-0.326L135.108,34.433z"/>
	<path style="fill:#FFFFFF;" d="M123.15,34.428c0.797-1.465,1.206-2.704,1.228-3.722c0.017-1.014-0.326-1.838-1.02-2.473
		c-0.699-0.636-1.737-1.101-3.117-1.395c-1.384-0.298-3.069-0.468-5.064-0.509c-1.546-0.034-3.21,0.051-4.994,0.256
		c-1.783,0.204-3.434,0.5-4.944,0.887l-1.94,3.561c1.701-0.383,3.377-0.681,5.023-0.896c1.648-0.214,3.195-0.307,4.65-0.275
		c2.04,0.041,3.294,0.46,3.767,1.251c0.468,0.794,0.31,1.914-0.48,3.36c-0.794-0.063-1.529-0.113-2.209-0.152
		c-0.677-0.04-1.366-0.066-2.073-0.08c-4.711-0.102-8.58,0.392-11.602,1.479c-3.024,1.09-5.116,2.7-6.28,4.834
		c-0.467,0.862-0.693,1.658-0.678,2.395c0.015,0.731,0.282,1.377,0.795,1.936c0.514,0.561,1.304,1.003,2.369,1.332
		c1.068,0.328,2.42,0.511,4.061,0.546c2.109,0.045,4.056-0.155,5.84-0.601c1.787-0.446,3.429-0.909,4.935-1.587
		c-0.02,0.387,0.048,0.638,0.201,0.948c0.152,0.309,0.4,0.577,0.751,0.803c0.356,0.222,0.824,0.404,1.417,0.535
		c0.591,0.136,1.316,0.211,2.187,0.228c0.108,0.002,0.21-0.003,0.315-0.003l2.568-4.696c0.04-0.121,0.095-0.248,0.17-0.385
		L123.15,34.428z M112.522,41.333c-1.42,0.649-2.913,1.154-4.491,1.524c-1.577,0.368-3.022,0.54-4.334,0.513
		c-1.292-0.027-2.154-0.305-2.59-0.829c-0.436-0.525-0.436-1.193,0.006-2.005c0.232-0.433,0.576-0.844,1.029-1.236
		c0.452-0.393,1.056-0.745,1.818-1.049c0.756-0.307,1.691-0.545,2.807-0.715c1.111-0.171,2.452-0.239,4.025-0.206
		c0.723,0.016,1.411,0.041,2.059,0.07c0.647,0.031,1.232,0.067,1.754,0.107L112.522,41.333z"/>
	<path style="fill:#FFFFFF;" d="M158.086,43.231h1.298c-0.409-0.008-1.022-0.014-1.692-0.015c0.05,0.002,0.097,0.013,0.149,0.013
		L158.086,43.231z"/>
	<path style="fill:#FFFFFF;" d="M177.016,27.391c-0.557-0.401-1.33-0.742-2.253-0.929c-0.958-0.195-1.333-0.315-3.962-0.313
		l-6.531,0.003c-4.96-0.05-8.248,1.57-10.025,4.336c-0.359,0.559-0.878,1.377-0.878,1.377l-3.22,6.112
		c-2.537,4.575-2.19,7.467,1.035,8.672c0.731,0.201,1.473,0.337,2.232,0.411c0.761,0.07,2.194,0.107,4.309,0.106l14.028-0.108
		l1.907-3.851l-15.568,0.019c0,0-0.281-0.013-0.394-0.015c-1.446-0.075-2.591-1.012-2.591-2.167c0-0.271,0.07-0.529,0.186-0.767
		l0.827-1.409l9.017,0.053c2.734-0.003,4.777-0.175,6.13-0.519c1.553-0.404,3.017-1.16,4.398-2.27
		c1.377-1.107,1.659-2.178,2.374-3.587C179.218,30.216,178.469,28.542,177.016,27.391z M172.027,32.508
		c-0.304,0.603-0.985,1.175-1.626,1.521c-0.644,0.345-1.513,0.405-2.313,0.405l-1.192,0.001l-7.657,0.002l-0.547-0.044l2.143-3.754
		l5.447-0.001l2.545-0.001c1.389-0.001,2.657,0.035,3.079,0.324C172.331,31.247,172.364,31.848,172.027,32.508z"/>
	<path style="fill:#FFFFFF;" d="M156.416,34.82c-0.386,0-0.732-0.031-1.054-0.082C155.683,34.789,156.029,34.82,156.416,34.82z"/>
</g>
</svg>
